<mxfile host="65bd71144e">
    <diagram id="5y4LlAmNi_XPBIc4W9uz" name="Page-1">
        <mxGraphModel dx="772" dy="628" grid="1" gridSize="10" guides="1" tooltips="1" connect="1" arrows="1" fold="1" page="1" pageScale="1" pageWidth="1169" pageHeight="827" math="0" shadow="0">
            <root>
                <mxCell id="0"/>
                <mxCell id="1" parent="0"/>
                <mxCell id="2" value="VNet - primary location" style="rounded=1;whiteSpace=wrap;html=1;arcSize=0;align=left;verticalAlign=top;fontFamily=Tahoma;spacingLeft=4;" vertex="1" parent="1">
                    <mxGeometry x="260" y="260" width="360" height="300" as="geometry"/>
                </mxCell>
                <mxCell id="4" value="Peered" style="edgeStyle=none;html=1;startArrow=classic;startFill=1;fontFamily=Tahoma;" edge="1" parent="1" source="3" target="2">
                    <mxGeometry relative="1" as="geometry"/>
                </mxCell>
                <mxCell id="3" value="VNet - secondary location" style="rounded=1;whiteSpace=wrap;html=1;arcSize=0;align=left;verticalAlign=top;fontFamily=Tahoma;spacingLeft=4;" vertex="1" parent="1">
                    <mxGeometry x="260" y="607" width="360" height="120" as="geometry"/>
                </mxCell>
                <mxCell id="24" style="edgeStyle=none;html=1;exitX=1;exitY=0.5;exitDx=0;exitDy=0;entryX=0;entryY=0.5;entryDx=0;entryDy=0;" edge="1" parent="1" source="7" target="10">
                    <mxGeometry relative="1" as="geometry"/>
                </mxCell>
                <mxCell id="7" value="Subnet - container apps environment&lt;div&gt;&lt;font color=&quot;#000000&quot;&gt;&lt;br&gt;&lt;/font&gt;&lt;div&gt;(delegated to&amp;nbsp;Microsoft.App/environments)&lt;/div&gt;&lt;/div&gt;" style="rounded=1;whiteSpace=wrap;html=1;arcSize=0;align=left;verticalAlign=top;fontFamily=Tahoma;spacingLeft=4;" vertex="1" parent="1">
                    <mxGeometry x="270" y="380" width="340" height="80" as="geometry"/>
                </mxCell>
                <mxCell id="10" value="Container Apps Environment" style="rounded=1;whiteSpace=wrap;html=1;arcSize=0;align=left;verticalAlign=top;fontFamily=Tahoma;spacingLeft=4;" vertex="1" parent="1">
                    <mxGeometry x="700" y="380" width="340" height="80" as="geometry"/>
                </mxCell>
                <mxCell id="11" value="Private DNS" style="rounded=1;whiteSpace=wrap;html=1;arcSize=0;align=left;verticalAlign=middle;fontFamily=Tahoma;spacingLeft=4;" vertex="1" parent="1">
                    <mxGeometry x="700" y="480" width="155" height="40" as="geometry"/>
                </mxCell>
                <mxCell id="12" value="Container App - auth" style="rounded=1;whiteSpace=wrap;html=1;arcSize=0;align=left;verticalAlign=middle;fontFamily=Tahoma;spacingLeft=4;" vertex="1" parent="1">
                    <mxGeometry x="873.5" y="410" width="155" height="40" as="geometry"/>
                </mxCell>
                <mxCell id="13" value="Storage Account" style="rounded=1;whiteSpace=wrap;html=1;arcSize=0;align=left;verticalAlign=top;fontFamily=Tahoma;spacingLeft=4;" vertex="1" parent="1">
                    <mxGeometry x="700" y="290" width="340" height="80" as="geometry"/>
                </mxCell>
                <mxCell id="25" style="edgeStyle=none;html=1;exitX=1;exitY=0.5;exitDx=0;exitDy=0;entryX=1;entryY=0.5;entryDx=0;entryDy=0;" edge="1" parent="1" source="14" target="23">
                    <mxGeometry relative="1" as="geometry"/>
                </mxCell>
                <mxCell id="14" value="Subnet - private endpoints" style="rounded=1;whiteSpace=wrap;html=1;arcSize=0;align=left;verticalAlign=top;fontFamily=Tahoma;spacingLeft=4;" vertex="1" parent="1">
                    <mxGeometry x="270" y="290" width="340" height="80" as="geometry"/>
                </mxCell>
                <mxCell id="20" style="edgeStyle=none;html=1;exitX=0;exitY=0.5;exitDx=0;exitDy=0;entryX=0.997;entryY=0.161;entryDx=0;entryDy=0;entryPerimeter=0;endArrow=none;endFill=0;startArrow=classic;startFill=1;" edge="1" parent="1" source="15" target="17">
                    <mxGeometry relative="1" as="geometry"/>
                </mxCell>
                <mxCell id="15" value="Subnet - power platform&lt;div&gt;&lt;font color=&quot;#000000&quot;&gt;&lt;br&gt;&lt;/font&gt;&lt;div&gt;(delegated to&amp;nbsp;Microsoft.PowerPlatform/enterprisePolicies)&lt;/div&gt;&lt;/div&gt;" style="rounded=1;whiteSpace=wrap;html=1;arcSize=0;align=left;verticalAlign=top;fontFamily=Tahoma;spacingLeft=4;" vertex="1" parent="1">
                    <mxGeometry x="270" y="470" width="340" height="80" as="geometry"/>
                </mxCell>
                <mxCell id="21" style="edgeStyle=none;html=1;exitX=0;exitY=0.5;exitDx=0;exitDy=0;entryX=1.001;entryY=0.829;entryDx=0;entryDy=0;entryPerimeter=0;startArrow=classic;startFill=1;endArrow=none;endFill=0;" edge="1" parent="1" source="16" target="17">
                    <mxGeometry relative="1" as="geometry"/>
                </mxCell>
                <mxCell id="16" value="Subnet - power platform" style="rounded=1;whiteSpace=wrap;html=1;arcSize=0;align=left;verticalAlign=top;fontFamily=Tahoma;spacingLeft=4;" vertex="1" parent="1">
                    <mxGeometry x="270" y="637" width="340" height="80" as="geometry"/>
                </mxCell>
                <mxCell id="17" value="Enterprise Policy" style="rounded=1;whiteSpace=wrap;html=1;arcSize=0;align=left;verticalAlign=top;fontFamily=Tahoma;spacingLeft=4;" vertex="1" parent="1">
                    <mxGeometry x="100" y="470" width="110" height="250" as="geometry"/>
                </mxCell>
                <mxCell id="22" value="Container App - no auth" style="rounded=1;whiteSpace=wrap;html=1;arcSize=0;align=left;verticalAlign=middle;fontFamily=Tahoma;spacingLeft=4;" vertex="1" parent="1">
                    <mxGeometry x="710" y="410" width="155" height="40" as="geometry"/>
                </mxCell>
                <mxCell id="26" style="edgeStyle=none;html=1;exitX=0;exitY=0.5;exitDx=0;exitDy=0;entryX=0;entryY=0.5;entryDx=0;entryDy=0;" edge="1" parent="1" source="23" target="13">
                    <mxGeometry relative="1" as="geometry"/>
                </mxCell>
                <mxCell id="23" value="Private endpoint" style="rounded=1;whiteSpace=wrap;html=1;arcSize=0;align=center;verticalAlign=middle;fontFamily=Tahoma;spacingLeft=4;rotation=-180;textDirection=vertical-rl;" vertex="1" parent="1">
                    <mxGeometry x="640" y="290" width="34.25" height="80" as="geometry"/>
                </mxCell>
                <mxCell id="27" value="Power Platform Environment&lt;div&gt;&lt;br&gt;&lt;/div&gt;&lt;div&gt;&lt;br&gt;&lt;/div&gt;" style="rounded=1;whiteSpace=wrap;html=1;arcSize=0;align=left;verticalAlign=top;fontFamily=Tahoma;spacingLeft=4;" vertex="1" parent="1">
                    <mxGeometry x="100" y="30" width="110" height="170" as="geometry"/>
                </mxCell>
                <mxCell id="30" value="&lt;div&gt;&lt;span style=&quot;color: rgb(63, 63, 63);&quot;&gt;Network Injection Policy&lt;/span&gt;&lt;/div&gt;" style="rounded=1;whiteSpace=wrap;html=1;arcSize=0;align=center;verticalAlign=top;fontFamily=Tahoma;spacingLeft=4;" vertex="1" parent="1">
                    <mxGeometry x="115" y="130" width="80" height="60" as="geometry"/>
                </mxCell>
                <mxCell id="29" style="edgeStyle=none;html=1;exitX=0.5;exitY=1;exitDx=0;exitDy=0;entryX=0.5;entryY=0;entryDx=0;entryDy=0;" edge="1" parent="1" source="30" target="17">
                    <mxGeometry relative="1" as="geometry"/>
                </mxCell>
            </root>
        </mxGraphModel>
    </diagram>
</mxfile>